<?xml version="1.0" encoding="UTF-8" standalone="no"?>
<!DOCTYPE svg PUBLIC "-//W3C//DTD SVG 1.1//EN" "http://www.w3.org/Graphics/SVG/1.1/DTD/svg11.dtd">
<svg width="100%" height="100%" viewBox="0 0 1800 324" version="1.1" xmlns="http://www.w3.org/2000/svg" xmlns:xlink="http://www.w3.org/1999/xlink" xml:space="preserve" xmlns:serif="http://www.serif.com/" style="fill-rule:evenodd;clip-rule:evenodd;stroke-linecap:round;stroke-linejoin:round;stroke-miterlimit:1.5;">
    <g id="Grey-Background" serif:id="Grey Background" transform="matrix(0.950342,0,0,0.950342,-41.2432,-31.4803)">
        <circle cx="248.587" cy="205.695" r="138.897" style="fill:rgb(204,204,204);"/>
    </g>
    <g id="Paths">
        <g transform="matrix(0.353657,0,0,0.634226,53.2234,109.183)">
            <rect x="72.575" y="163.692" width="250.45" height="47.302" style="fill:rgb(238,165,80);"/>
        </g>
        <g transform="matrix(0.359354,0,0,0.634226,191.062,109.183)">
            <rect x="72.575" y="163.692" width="250.45" height="47.302" style="fill:rgb(92,200,141);"/>
        </g>
        <g transform="matrix(0.272287,0,0,0.465099,203.905,164.867)">
            <rect x="72.575" y="163.692" width="250.45" height="47.302" style="fill:rgb(92,200,141);"/>
        </g>
        <g transform="matrix(0.272287,0,0,0.465099,78.7306,164.867)">
            <rect x="72.575" y="163.692" width="250.45" height="47.302" style="fill:rgb(238,165,80);"/>
        </g>
    </g>
    <g id="Cyclist" transform="matrix(-0.320268,0,0,0.320268,290.161,177.82)">
        <path id="path4349" d="M92.012,28.921C84.156,28.933 77.704,35.125 77.371,42.97C77.467,52.122 80.658,65.434 82.305,76.024L61.081,95.585C59.411,96.909 58.433,98.931 58.437,101.064C58.437,101.076 58.439,101.088 58.439,101.101C56.078,102.84 54.26,105.315 53.35,108.261L43.14,141.239C26.757,137.912 10.301,146.588 3.787,161.982C-3.779,179.856 4.587,200.483 22.46,208.047C40.335,215.61 60.958,207.254 68.524,189.381C76.088,171.506 67.731,150.88 49.85,143.316L52.646,134.289L94.195,180.39C95.53,181.869 97.425,182.705 99.415,182.705L114.188,182.705C114.452,184.02 114.796,185.308 115.209,186.573C121.225,205.032 141.065,215.114 159.516,209.096C177.975,203.085 188.049,183.246 182.039,164.787L182.037,164.787C176.021,146.33 156.18,136.247 137.73,142.266L127.531,119.448L130.17,112.417L138.081,112.417L138.081,105.393L131.929,105.393L132.693,104.687C136.235,101.744 139.608,92.331 136.223,86.62C132.832,80.903 131.141,77.728 131.141,77.728C131.141,77.728 93.446,112.237 90.055,115.832C89.042,116.907 88.281,118.1 87.754,119.448L57.243,119.448L60.061,110.343C60.448,109.099 61.169,108.038 62.09,107.21C63.083,107.751 64.223,108.059 65.434,108.059C66.64,108.054 67.816,107.743 68.864,107.154L69.01,107.364L71.233,105.393L78.33,105.393L78.33,99.098L97.564,82.04L106.242,94.629L128.633,73.364L100.485,34.605C97.59,30.618 95.267,28.921 92.012,28.921L92.012,28.921ZM121.778,114.779L120.029,119.448L116.727,119.448L121.778,114.779ZM55.064,126.478L86.962,126.478C87.105,128.176 87.425,130.046 87.932,132.133C91.22,144.55 91.198,144.624 98.138,168.372C98.655,169.645 99.469,170.732 100.47,171.59L99.077,175.305L55.064,126.478ZM109.123,126.478L117.386,126.478L109.781,146.761C107.135,136.82 105.297,130.015 105.297,130.015L109.123,126.478ZM124.019,128.819L131.301,145.101C120.286,151.339 113.476,163.019 113.476,175.68L106.445,175.68L107.253,173.526C111.284,172.897 114.376,169.417 114.376,165.209C114.376,164.422 114.263,163.636 114.047,162.877C113.536,160.925 113.356,160.276 112.889,158.499L124.019,128.819ZM36.322,147.563C37.885,147.573 39.464,147.715 41.045,147.994L32.799,174.636C32.219,176.498 33.259,178.463 35.115,179.039C36.967,179.61 38.939,178.572 39.51,176.723L47.762,150.075C61.902,156.479 68.172,173.144 61.763,187.285C55.352,201.433 38.694,207.696 24.546,201.292C10.404,194.881 4.135,178.216 10.546,164.075C15.184,153.841 25.376,147.494 36.322,147.563ZM147.919,147.563C148.617,147.545 149.312,147.553 150.002,147.588C161.973,148.173 172.691,156.432 175.849,168.65C179.728,183.687 170.685,199.026 155.654,202.904L155.654,202.906C140.617,206.786 125.277,197.742 121.397,182.705L150.379,182.705C150.877,182.705 151.359,182.599 151.808,182.403C153.583,181.613 154.382,179.536 153.583,177.76L140.616,148.73C140.941,148.627 141.266,148.54 141.593,148.454C143.707,147.908 145.826,147.617 147.919,147.563L147.919,147.563ZM134.174,151.554L144.957,175.68L120.5,175.68C120.5,165.796 125.701,156.633 134.174,151.554Z" style="fill:rgb(4,55,96);fill-rule:nonzero;"/>
        <path id="path4351" d="M90.959,21.248C90.959,29.351 84.392,35.919 76.288,35.919C68.188,35.919 61.617,29.351 61.617,21.248C61.617,13.145 68.188,6.578 76.288,6.578C84.392,6.578 90.959,13.145 90.959,21.248Z" style="fill:rgb(4,55,96);fill-rule:nonzero;"/>
    </g>
    <g id="Pedestrian-Fix" serif:id="Pedestrian Fix" transform="matrix(1,0,0,1,-5,14)">
        <path d="M134.122,183.488L137.616,185.481L137.904,191.138L133.943,188.677L134.122,183.488Z" style="fill:rgb(4,55,96);"/>
    </g>
    <g id="Pedestrian-Fix1" serif:id="Pedestrian Fix" transform="matrix(1,0,0,1,-5.00436,16.8131)">
        <path d="M126.664,172.102L130.852,173.095L131.506,178.546L125.495,177.413L126.664,172.102Z" style="fill:rgb(4,55,96);"/>
    </g>
    <g id="Cyclist-Fix" serif:id="Cyclist Fix" transform="matrix(1,0,0,1,116.269,18.1596)">
        <path d="M132.756,183.084L139.953,189.852L138.944,191.243L131.79,184.755L132.756,183.084Z" style="fill:rgb(4,55,96);"/>
    </g>
    <g id="Pedestrian-Fix2" serif:id="Pedestrian Fix" transform="matrix(1,0,0,1,-5,14)">
        <path d="M125.934,197.32L130.247,201.942L129.268,206.206L124.636,200.482L125.934,197.32Z" style="fill:rgb(4,55,96);"/>
    </g>
    <g id="Pedestrian" transform="matrix(0.0883217,0,0,0.0883217,89.1925,172.99)">
        <path d="M336.667,133.967C336.667,99.223 365.256,70.633 400,70.633C434.744,70.633 463.333,99.223 463.333,133.967C463.333,168.71 434.744,197.3 400,197.3C399.989,197.3 399.978,197.3 399.967,197.3C365.241,197.3 336.667,168.725 336.667,134C336.667,133.989 336.667,133.978 336.667,133.967ZM545.233,542L464.4,429.433L454.633,249.333C452.4,206.433 393.867,201.033 341.267,196.7C309.767,250.033 258.6,349.2 237.1,391.3C231.434,402.408 235.307,416.175 245.933,422.7C249.833,425.113 254.328,426.392 258.914,426.392C267.78,426.392 275.99,421.611 280.367,413.9L350.5,289.9L359.1,434.5L474.767,572.633L532.233,734.567C538.041,747.645 551.069,756.114 565.379,756.114C585.274,756.114 601.645,739.743 601.645,719.848C601.645,719.243 601.63,718.638 601.6,718.033C601.509,715.76 601.174,713.502 600.6,711.3C599.6,707.533 545.267,542.033 545.267,542.033L545.233,542ZM344.767,469.333L397.467,532.233L386.3,585.167L278.733,728C272.261,739.168 260.292,746.066 247.384,746.066C227.507,746.066 211.15,729.709 211.15,709.832C211.15,701.954 213.72,694.287 218.467,688L320.633,545.167L344.767,469.333ZM600,364.533C606.383,370.107 610.051,378.18 610.051,386.654C610.051,402.764 596.795,416.021 580.685,416.021C577.927,416.021 575.183,415.632 572.533,414.867C552.167,402.533 494.2,363.667 494.2,363.667L490.733,299.467L600,364.533Z" style="fill:rgb(4,55,96);fill-rule:nonzero;"/>
    </g>
    <g transform="matrix(1,0,0,1,-5,14)">
        <path d="M137.535,185.439L134.521,184.231L134.867,190.02L137.97,190.995L137.535,185.439Z" style="fill:none;"/>
    </g>
    <g transform="matrix(1,0,0,1,-5,14)">
        <path d="M134.521,184.231L134.867,190.02" style="fill:none;"/>
    </g>
    <g id="Train">
        <g transform="matrix(1,0,0,1,-5,14)">
            <g id="Train-body" serif:id="Train body" transform="matrix(1.05161,0,0,1.08734,-6.76363,-3.86212)">
                <path d="M255.669,48.437C255.669,46.108 253.714,44.217 251.306,44.217L135.417,44.217C133.008,44.217 131.053,46.108 131.053,48.437L131.053,74.22C131.053,76.549 133.008,78.44 135.417,78.44L251.306,78.44C253.714,78.44 255.669,76.549 255.669,74.22L255.669,48.437Z" style="fill:rgb(49,205,220);"/>
            </g>
            <g id="Window" transform="matrix(0.212024,0,0,0.495235,139.731,28.3507)">
                <path d="M255.669,53.449C255.669,48.354 246.007,44.217 234.107,44.217L152.616,44.217C140.715,44.217 131.053,48.354 131.053,53.449L131.053,69.209C131.053,74.304 140.715,78.44 152.616,78.44L234.107,78.44C246.007,78.44 255.669,74.304 255.669,69.209L255.669,53.449Z" style="fill:white;"/>
            </g>
            <g id="Window1" serif:id="Window" transform="matrix(0.212024,0,0,0.495235,107.429,28.3507)">
                <path d="M255.669,53.449C255.669,48.354 246.007,44.217 234.107,44.217L152.616,44.217C140.715,44.217 131.053,48.354 131.053,53.449L131.053,69.209C131.053,74.304 140.715,78.44 152.616,78.44L234.107,78.44C246.007,78.44 255.669,74.304 255.669,69.209L255.669,53.449Z" style="fill:white;"/>
            </g>
            <g id="Window2" serif:id="Window" transform="matrix(0.212024,0,0,0.495235,171.086,28.3466)">
                <path d="M255.669,53.449C255.669,48.354 246.007,44.217 234.107,44.217L152.616,44.217C140.715,44.217 131.053,48.354 131.053,53.449L131.053,69.209C131.053,74.304 140.715,78.44 152.616,78.44L234.107,78.44C246.007,78.44 255.669,74.304 255.669,69.209L255.669,53.449Z" style="fill:white;"/>
            </g>
            <g id="Window3" serif:id="Window" transform="matrix(0.212024,0,0,0.495235,202.154,28.3466)">
                <path d="M255.669,53.449C255.669,48.354 246.007,44.217 234.107,44.217L152.616,44.217C140.715,44.217 131.053,48.354 131.053,53.449L131.053,69.209C131.053,74.304 140.715,78.44 152.616,78.44L234.107,78.44C246.007,78.44 255.669,74.304 255.669,69.209L255.669,53.449Z" style="fill:white;"/>
            </g>
        </g>
        <g transform="matrix(1,0,0,1,-139.703,14)">
            <clipPath id="_clip1">
                <circle cx="334.703" cy="150" r="132"/>
            </clipPath>
            <g clip-path="url(#_clip1)">
                <g id="Train-body1" serif:id="Train body" transform="matrix(1.05161,0,0,1.08734,-6.76363,-3.86212)">
                    <path d="M255.669,48.437C255.669,46.108 253.714,44.217 251.306,44.217L135.417,44.217C133.008,44.217 131.053,46.108 131.053,48.437L131.053,74.22C131.053,76.549 133.008,78.44 135.417,78.44L251.306,78.44C253.714,78.44 255.669,76.549 255.669,74.22L255.669,48.437Z" style="fill:rgb(49,205,220);"/>
                </g>
                <g id="Window4" serif:id="Window" transform="matrix(0.212024,0,0,0.495235,139.731,28.3507)">
                    <path d="M255.669,53.449C255.669,48.354 246.007,44.217 234.107,44.217L152.616,44.217C140.715,44.217 131.053,48.354 131.053,53.449L131.053,69.209C131.053,74.304 140.715,78.44 152.616,78.44L234.107,78.44C246.007,78.44 255.669,74.304 255.669,69.209L255.669,53.449Z" style="fill:white;"/>
                </g>
                <g id="Window5" serif:id="Window" transform="matrix(0.212024,0,0,0.495235,107.429,28.3507)">
                    <path d="M255.669,53.449C255.669,48.354 246.007,44.217 234.107,44.217L152.616,44.217C140.715,44.217 131.053,48.354 131.053,53.449L131.053,69.209C131.053,74.304 140.715,78.44 152.616,78.44L234.107,78.44C246.007,78.44 255.669,74.304 255.669,69.209L255.669,53.449Z" style="fill:white;"/>
                </g>
                <g id="Window6" serif:id="Window" transform="matrix(0.212024,0,0,0.495235,171.086,28.3466)">
                    <path d="M255.669,53.449C255.669,48.354 246.007,44.217 234.107,44.217L152.616,44.217C140.715,44.217 131.053,48.354 131.053,53.449L131.053,69.209C131.053,74.304 140.715,78.44 152.616,78.44L234.107,78.44C246.007,78.44 255.669,74.304 255.669,69.209L255.669,53.449Z" style="fill:white;"/>
                </g>
                <g id="Window7" serif:id="Window" transform="matrix(0.212024,0,0,0.495235,202.154,28.3466)">
                    <path d="M255.669,53.449C255.669,48.354 246.007,44.217 234.107,44.217L152.616,44.217C140.715,44.217 131.053,48.354 131.053,53.449L131.053,69.209C131.053,74.304 140.715,78.44 152.616,78.44L234.107,78.44C246.007,78.44 255.669,74.304 255.669,69.209L255.669,53.449Z" style="fill:white;"/>
                </g>
            </g>
        </g>
        <g transform="matrix(1,0,0,1,130.069,14)">
            <clipPath id="_clip2">
                <circle cx="64.931" cy="150" r="132"/>
            </clipPath>
            <g clip-path="url(#_clip2)">
                <g id="Train-body2" serif:id="Train body" transform="matrix(1.05161,0,0,1.08734,-6.76363,-3.86212)">
                    <path d="M255.669,48.437C255.669,46.108 253.714,44.217 251.306,44.217L135.417,44.217C133.008,44.217 131.053,46.108 131.053,48.437L131.053,74.22C131.053,76.549 133.008,78.44 135.417,78.44L251.306,78.44C253.714,78.44 255.669,76.549 255.669,74.22L255.669,48.437Z" style="fill:rgb(49,205,220);"/>
                </g>
                <g id="Window8" serif:id="Window" transform="matrix(0.212024,0,0,0.495235,139.731,28.3507)">
                    <path d="M255.669,53.449C255.669,48.354 246.007,44.217 234.107,44.217L152.616,44.217C140.715,44.217 131.053,48.354 131.053,53.449L131.053,69.209C131.053,74.304 140.715,78.44 152.616,78.44L234.107,78.44C246.007,78.44 255.669,74.304 255.669,69.209L255.669,53.449Z" style="fill:white;"/>
                </g>
                <g id="Window9" serif:id="Window" transform="matrix(0.212024,0,0,0.495235,107.429,28.3507)">
                    <path d="M255.669,53.449C255.669,48.354 246.007,44.217 234.107,44.217L152.616,44.217C140.715,44.217 131.053,48.354 131.053,53.449L131.053,69.209C131.053,74.304 140.715,78.44 152.616,78.44L234.107,78.44C246.007,78.44 255.669,74.304 255.669,69.209L255.669,53.449Z" style="fill:white;"/>
                </g>
                <g id="Window10" serif:id="Window" transform="matrix(0.212024,0,0,0.495235,171.086,28.3466)">
                    <path d="M255.669,53.449C255.669,48.354 246.007,44.217 234.107,44.217L152.616,44.217C140.715,44.217 131.053,48.354 131.053,53.449L131.053,69.209C131.053,74.304 140.715,78.44 152.616,78.44L234.107,78.44C246.007,78.44 255.669,74.304 255.669,69.209L255.669,53.449Z" style="fill:white;"/>
                </g>
                <g id="Window11" serif:id="Window" transform="matrix(0.212024,0,0,0.495235,202.154,28.3466)">
                    <path d="M255.669,53.449C255.669,48.354 246.007,44.217 234.107,44.217L152.616,44.217C140.715,44.217 131.053,48.354 131.053,53.449L131.053,69.209C131.053,74.304 140.715,78.44 152.616,78.44L234.107,78.44C246.007,78.44 255.669,74.304 255.669,69.209L255.669,53.449Z" style="fill:white;"/>
                </g>
            </g>
        </g>
    </g>
    <g id="Outlines">
        <g id="T-top" serif:id="T top" transform="matrix(1.09384,0,0,0.994392,-52.4567,-3.14657)">
            <path d="M299.366,129.935C299.366,116.613 289.533,105.797 277.422,105.797L175.035,105.797C162.924,105.797 153.091,116.613 153.091,129.935C153.091,143.257 162.924,154.073 175.035,154.073L277.422,154.073C289.533,154.073 299.366,143.257 299.366,129.935Z" style="fill:white;stroke:rgb(4,55,96);stroke-width:17.22px;"/>
        </g>
        <g transform="matrix(1.11276,0,0,0.976264,-24.0051,16.3563)">
            <rect x="162.743" y="128.055" width="62.907" height="158.769" style="fill:rgb(4,55,96);"/>
        </g>
        <g transform="matrix(0.598175,0,0,0.984374,75.9257,14.0303)">
            <rect x="162.743" y="128.055" width="62.907" height="158.769" style="fill:white;"/>
        </g>
        <g id="Train-Track" serif:id="Train Track" transform="matrix(1,0,0,1,-8.21974,15.3591)">
            <path d="M93.549,81.522L312.89,81.522" style="fill:none;stroke:rgb(4,55,96);stroke-width:14px;"/>
        </g>
        <g transform="matrix(0.950342,0,0,0.950342,-41.2432,-31.4803)">
            <circle cx="248.587" cy="205.695" r="138.897" style="fill:none;stroke:rgb(4,55,96);stroke-width:19.99px;"/>
        </g>
    </g>
    <g transform="matrix(4.05525,0,0,4.05525,197.755,-961.929)">
        <g transform="matrix(60,0,0,60,45.0412,300.87)">
            <path d="M0.455,-0.791L0.455,-0.632L0.333,-0.632L0.333,-0L0.127,-0L0.127,-0.632L0.006,-0.632L0.006,-0.791L0.455,-0.791Z" style="fill:rgb(4,55,96);fill-rule:nonzero;"/>
        </g>
        <g transform="matrix(60,0,0,60,75.6975,300.87)">
            <path d="M0.041,-0.791L0.187,-0.791C0.284,-0.791 0.349,-0.787 0.384,-0.779C0.418,-0.772 0.446,-0.753 0.468,-0.722C0.489,-0.691 0.5,-0.642 0.5,-0.575C0.5,-0.513 0.492,-0.472 0.477,-0.451C0.462,-0.43 0.432,-0.417 0.387,-0.413C0.427,-0.403 0.455,-0.389 0.469,-0.372C0.483,-0.355 0.491,-0.34 0.495,-0.325C0.498,-0.311 0.5,-0.272 0.5,-0.208L0.5,-0L0.309,-0L0.309,-0.263C0.309,-0.305 0.306,-0.331 0.299,-0.341C0.292,-0.351 0.275,-0.356 0.247,-0.356L0.247,-0L0.041,-0L0.041,-0.791ZM0.247,-0.655L0.247,-0.479C0.27,-0.479 0.286,-0.483 0.295,-0.489C0.304,-0.495 0.309,-0.516 0.309,-0.551L0.309,-0.594C0.309,-0.619 0.305,-0.636 0.296,-0.644C0.287,-0.651 0.27,-0.655 0.247,-0.655Z" style="fill:rgb(4,55,96);fill-rule:nonzero;"/>
        </g>
        <g transform="matrix(60,0,0,60,111.012,300.87)">
            <path d="M0.396,-0.791L0.514,-0L0.303,-0L0.293,-0.142L0.219,-0.142L0.207,-0L-0.006,-0L0.099,-0.791L0.396,-0.791ZM0.287,-0.282C0.277,-0.372 0.266,-0.482 0.256,-0.614C0.235,-0.463 0.222,-0.352 0.217,-0.282L0.287,-0.282Z" style="fill:rgb(4,55,96);fill-rule:nonzero;"/>
        </g>
        <g transform="matrix(60,0,0,60,144.481,300.87)">
            <path d="M0.5,-0.791L0.5,-0L0.32,-0L0.213,-0.359L0.213,-0L0.041,-0L0.041,-0.791L0.213,-0.791L0.328,-0.435L0.328,-0.791L0.5,-0.791Z" style="fill:rgb(4,55,96);fill-rule:nonzero;"/>
        </g>
        <g transform="matrix(60,0,0,60,179.971,300.87)">
            <path d="M0.477,-0.551L0.286,-0.551L0.286,-0.61C0.286,-0.637 0.283,-0.655 0.278,-0.662C0.273,-0.67 0.265,-0.673 0.254,-0.673C0.242,-0.673 0.232,-0.668 0.226,-0.658C0.219,-0.648 0.216,-0.633 0.216,-0.612C0.216,-0.586 0.22,-0.566 0.227,-0.553C0.234,-0.539 0.253,-0.523 0.285,-0.504C0.377,-0.45 0.434,-0.405 0.458,-0.371C0.482,-0.336 0.494,-0.28 0.494,-0.202C0.494,-0.146 0.487,-0.104 0.474,-0.078C0.461,-0.051 0.435,-0.029 0.397,-0.01C0.36,0.008 0.316,0.017 0.266,0.017C0.211,0.017 0.164,0.006 0.125,-0.015C0.086,-0.035 0.06,-0.062 0.048,-0.094C0.036,-0.126 0.03,-0.172 0.03,-0.231L0.03,-0.283L0.221,-0.283L0.221,-0.187C0.221,-0.157 0.224,-0.138 0.229,-0.13C0.235,-0.121 0.244,-0.117 0.258,-0.117C0.271,-0.117 0.282,-0.123 0.288,-0.133C0.295,-0.144 0.298,-0.16 0.298,-0.181C0.298,-0.228 0.292,-0.258 0.279,-0.272C0.266,-0.287 0.234,-0.311 0.183,-0.344C0.132,-0.378 0.098,-0.403 0.082,-0.418C0.065,-0.433 0.051,-0.454 0.04,-0.481C0.029,-0.508 0.024,-0.543 0.024,-0.585C0.024,-0.646 0.032,-0.69 0.047,-0.718C0.063,-0.746 0.088,-0.768 0.122,-0.783C0.157,-0.799 0.198,-0.807 0.247,-0.807C0.3,-0.807 0.346,-0.799 0.384,-0.781C0.421,-0.764 0.446,-0.742 0.458,-0.716C0.47,-0.69 0.477,-0.645 0.477,-0.583L0.477,-0.551Z" style="fill:rgb(4,55,96);fill-rule:nonzero;"/>
        </g>
        <g transform="matrix(60,0,0,60,213.996,300.87)">
            <rect x="0.041" y="-0.791" width="0.206" height="0.791" style="fill:rgb(4,55,96);fill-rule:nonzero;"/>
        </g>
        <g transform="matrix(60,0,0,60,234.281,300.87)">
            <path d="M0.455,-0.791L0.455,-0.632L0.333,-0.632L0.333,-0L0.127,-0L0.127,-0.632L0.006,-0.632L0.006,-0.791L0.455,-0.791Z" style="fill:rgb(4,55,96);fill-rule:nonzero;"/>
        </g>
        <g transform="matrix(60,0,0,60,264.938,300.87)">
            <path d="M0.511,-0.328C0.511,-0.248 0.509,-0.192 0.505,-0.159C0.501,-0.126 0.49,-0.096 0.47,-0.068C0.45,-0.041 0.424,-0.02 0.39,-0.005C0.357,0.009 0.318,0.017 0.273,0.017C0.231,0.017 0.193,0.01 0.159,-0.004C0.125,-0.018 0.098,-0.039 0.078,-0.066C0.057,-0.094 0.045,-0.124 0.041,-0.157C0.037,-0.189 0.035,-0.246 0.035,-0.328L0.035,-0.463C0.035,-0.542 0.037,-0.599 0.041,-0.632C0.045,-0.665 0.056,-0.695 0.076,-0.722C0.096,-0.75 0.122,-0.771 0.156,-0.785C0.189,-0.8 0.228,-0.807 0.273,-0.807C0.315,-0.807 0.353,-0.8 0.387,-0.786C0.421,-0.773 0.448,-0.752 0.468,-0.724C0.489,-0.696 0.501,-0.666 0.505,-0.634C0.509,-0.601 0.511,-0.544 0.511,-0.463L0.511,-0.328ZM0.305,-0.587C0.305,-0.624 0.303,-0.648 0.299,-0.658C0.295,-0.668 0.287,-0.673 0.274,-0.673C0.263,-0.673 0.255,-0.669 0.249,-0.661C0.244,-0.653 0.241,-0.628 0.241,-0.587L0.241,-0.218C0.241,-0.172 0.243,-0.144 0.246,-0.133C0.25,-0.123 0.259,-0.117 0.272,-0.117C0.286,-0.117 0.295,-0.123 0.299,-0.136C0.303,-0.148 0.305,-0.178 0.305,-0.224L0.305,-0.587Z" style="fill:rgb(4,55,96);fill-rule:nonzero;"/>
        </g>
        <g transform="matrix(60,0,0,60,300.721,300.87)">
            <path d="M0.041,-0.791L0.248,-0.791C0.304,-0.791 0.347,-0.786 0.377,-0.777C0.407,-0.769 0.43,-0.756 0.445,-0.739C0.46,-0.723 0.47,-0.703 0.476,-0.679C0.481,-0.655 0.484,-0.619 0.484,-0.569L0.484,-0.5C0.484,-0.45 0.479,-0.413 0.468,-0.39C0.458,-0.367 0.439,-0.349 0.411,-0.337C0.383,-0.325 0.347,-0.318 0.302,-0.318L0.247,-0.318L0.247,-0L0.041,-0L0.041,-0.791ZM0.247,-0.655L0.247,-0.454C0.252,-0.454 0.257,-0.454 0.262,-0.454C0.281,-0.454 0.294,-0.458 0.301,-0.468C0.308,-0.477 0.312,-0.496 0.312,-0.525L0.312,-0.59C0.312,-0.617 0.308,-0.635 0.299,-0.643C0.291,-0.651 0.273,-0.655 0.247,-0.655Z" style="fill:rgb(4,55,96);fill-rule:nonzero;"/>
        </g>
        <g transform="matrix(60,0,0,60,333.838,300.87)">
            <rect x="0.041" y="-0.791" width="0.206" height="0.791" style="fill:rgb(4,55,96);fill-rule:nonzero;"/>
        </g>
        <g transform="matrix(60,0,0,60,354.123,300.87)">
            <path d="M0.396,-0.791L0.514,-0L0.303,-0L0.293,-0.142L0.219,-0.142L0.207,-0L-0.006,-0L0.099,-0.791L0.396,-0.791ZM0.287,-0.282C0.277,-0.372 0.266,-0.482 0.256,-0.614C0.235,-0.463 0.222,-0.352 0.217,-0.282L0.287,-0.282Z" style="fill:rgb(4,55,96);fill-rule:nonzero;"/>
        </g>
    </g>
</svg>
